<?xml version="1.0" encoding="UTF-8"?>
<svg id="Layer_1" data-name="Layer 1" xmlns="http://www.w3.org/2000/svg" viewBox="0 0 1931.23 1165.5">
  <defs>
    <style>
      .cls-1 {
        fill: #fff;
        stroke-width: 0px;
      }
    </style>
  </defs>
  <path class="cls-1" d="m188.48,263.73h-2.43c-.25-.05-.49-.12-.74-.15-1.64-.22-3.3-.33-4.91-.66-13.69-2.8-24.18-14.43-25.62-28.36-.08-.75-.18-1.5-.28-2.25,0-.81,0-1.62,0-2.43.05-.25.12-.49.15-.74.14-1.18.21-2.37.4-3.54,1.01-6.18,3.58-11.66,7.81-16.26,7.91-8.61,17.77-12.12,29.34-10.54,6.35.87,12,3.53,16.7,7.89,9.12,8.47,12.61,18.92,10.19,31.14-2.71,13.72-14.43,24.19-28.35,25.63-.75.08-1.5.18-2.25.28Zm9.16-38.67c2.83-1.64,5.62-3.26,8.42-4.87.3-.17.31-.36.1-.61-.66-.81-1.24-1.68-1.97-2.42-5.44-5.5-12.02-7.55-19.62-6.21-8.8,1.55-15.81,8.91-16.73,17.89-.44,4.3.33,8.35,2.46,12.09,4.3,7.57,12.55,11.63,21.22,10.43,4.95-.68,9.19-2.82,12.62-6.48.89-.95,1.65-2.03,2.52-3.11-3.03-1.8-5.91-3.51-8.78-5.22-4.11,6.29-12.19,6.33-16.63,2.06-4.36-4.2-4.47-10.77-.21-15.05,4.27-4.29,12.07-4.56,16.6,1.5Z"/>
</svg>