<?xml version="1.0" encoding="UTF-8"?>
<svg id="Layer_1" data-name="Layer 1" xmlns="http://www.w3.org/2000/svg" viewBox="0 0 1931.23 1165.5">
  <defs>
    <style>
      .cls-1 {
        fill: #fff;
        stroke-width: 0px;
      }
    </style>
  </defs>
  <path class="cls-1" d="m57.71,49.46H9.29c-.15-.03-.29-.08-.44-.1-4.4-.53-7.68-3.49-8.64-7.8-.06-.29-.14-.58-.21-.87,0-8.9,0-17.8,0-26.7.21.11.42.22.63.34,10.12,6.16,20.24,12.32,30.34,18.51,1.73,1.06,3.34,1.06,5.07,0,8.97-5.5,17.95-10.96,26.94-16.43,1.34-.81,2.69-1.61,4.03-2.41v26.7c-.04.1-.1.19-.12.29-.57,3.48-2.43,6.02-5.62,7.5-1.1.51-2.37.66-3.56.98Z"/>
  <path class="cls-1" d="m9.16,0c16.23,0,32.45,0,48.68,0,.15.04.29.1.44.12,3.91.48,7.21,3.28,8.3,7.02.12.42.1.67-.33.94-10.76,6.55-21.5,13.11-32.24,19.69-.37.23-.62.23-.99,0C22.26,21.19,11.52,14.62.76,8.08c-.44-.27-.46-.53-.33-.94C1.26,4.5,2.85,2.43,5.33,1.21,6.52.63,7.88.39,9.16,0Z"/>
</svg>