<?xml version="1.0" encoding="UTF-8"?>
<svg id="Layer_1" data-name="Layer 1" xmlns="http://www.w3.org/2000/svg" viewBox="0 0 1787.98 1389.09">
  <defs>
    <style>
      .cls-1 {
        fill: #5ace0f;
        stroke-width: 0px;
      }
    </style>
  </defs>
  <path class="cls-1" d="m532.52,334.67h-28.51l-7.47,13.03h-26.59l47.62-74.75h24.77l17.73,74.75h-25.09l-2.46-13.03Zm-3.52-18.15l-3.63-19.11-11,19.11h14.63Z"/>
  <path class="cls-1" d="m600.43,291.96l-2.56,12.81h31.18l-3.84,19.01h-31.07l-4.81,23.92h-25.2l14.95-74.75h60.76l-3.84,19.01h-35.56Z"/>
  <path class="cls-1" d="m660.65,292.49h-21.89l3.95-19.54h68.98l-3.95,19.54h-21.89l-11,55.21h-25.2l11-55.21Z"/>
  <path class="cls-1" d="m739.13,291.96l-1.71,8.76h31.61l-3.63,18.15h-31.71l-1.92,9.82h37.48l-3.84,19.01h-62.15l14.95-74.75h60.76l-3.84,19.01h-35.99Z"/>
  <path class="cls-1" d="m834.48,325.92l12.49,21.78h-26.16l-10.57-18.79h-6.19l-3.74,18.79h-25.2l14.95-74.75h33.53c19.75,0,31.07,9.08,31.07,24.56,0,13.35-7.48,23.6-20.18,28.4Zm-14.74-33.53h-8.44l-3.52,17.51h10.36c6.94,0,11-3.63,11-9.93,0-5.34-3.63-7.58-9.4-7.58Z"/>
  <path class="cls-1" d="m884.01,341.83l9.72-18.58c8.33,4.81,16.87,6.94,25.2,6.94,6.51,0,9.93-1.71,9.93-4.38,0-7.9-35.56-3.31-35.56-26.48,0-16.98,14.2-28.08,37.8-28.08,11.11,0,21.04,2.24,27.98,6.41l-9.08,18.37c-5.98-3.74-13.24-5.55-20.5-5.55s-11,2.46-11,5.02c0,8.22,35.66,2.99,35.66,26.05,0,16.66-14.52,27.87-37.8,27.87-13.35,0-25.2-3.2-32.35-7.58Z"/>
  <path class="cls-1" d="m983,292.49h-21.89l3.95-19.54h68.98l-3.95,19.54h-21.89l-11,55.21h-25.2l11-55.21Z"/>
  <path class="cls-1" d="m1028.7,315.99c0-26.38,19.65-44.74,47.09-44.74,23.28,0,37.91,13.77,37.91,33.42,0,26.37-19.65,44.74-47.09,44.74-23.28,0-37.91-13.77-37.91-33.42Zm59.58-9.82c0-8.65-5.45-14.52-14.63-14.52-12.39,0-19.54,10.57-19.54,22.85,0,8.65,5.45,14.52,14.63,14.52,12.39,0,19.54-10.57,19.54-22.85Z"/>
  <path class="cls-1" d="m1174.45,325.92l12.49,21.78h-26.16l-10.57-18.79h-6.19l-3.74,18.79h-25.2l14.95-74.75h33.53c19.75,0,31.07,9.08,31.07,24.56,0,13.35-7.48,23.6-20.18,28.4Zm-14.74-33.53h-8.44l-3.52,17.51h10.36c6.94,0,11-3.63,11-9.93,0-5.34-3.63-7.58-9.4-7.58Z"/>
  <path class="cls-1" d="m1299.06,272.95l-14.74,74.75h-22.96l6.62-34.06-21.04,27.34h-11.11l-11.53-26.91-6.73,33.64h-22.96l14.95-74.75h20.5l16.23,39.72,31.29-39.72h21.46Z"/>
</svg>