<?xml version="1.0" encoding="UTF-8"?>
<svg id="Layer_1" data-name="Layer 1" xmlns="http://www.w3.org/2000/svg" viewBox="0 0 1931.23 1165.5">
  <defs>
    <style>
      .cls-1 {
        fill: #fff;
        stroke-width: 0px;
      }
    </style>
  </defs>
  <path class="cls-1" d="m194.81,60.69c-.04-1.56.09-3.43-.09-5.29-.17-1.68-.68-3.23-1.89-4.47-.07-.07-.18-.14-.13-.25.04-.09.16-.06.24-.07,1.4-.18,2.8-.38,4.16-.78,2.81-.82,5.37-2.1,7.35-4.34,1.08-1.23,1.77-2.68,2.31-4.22.96-2.75,1.23-5.59,1.03-8.46-.2-2.78-1.25-5.25-3.11-7.35-.19-.21-.25-.39-.14-.67.84-2.29.74-4.6.08-6.91-.13-.45-.3-.88-.44-1.33-.07-.23-.2-.31-.43-.35-.78-.14-1.54,0-2.27.23-2.2.69-4.24,1.72-6.16,2.99-.31.21-.61.25-.96.16-3.8-1-7.65-1.25-11.54-.79-1.4.17-2.79.41-4.15.78-.35.09-.64.07-.96-.14-1.94-1.33-4.06-2.28-6.28-3-.72-.23-1.47-.35-2.24-.23-.2.03-.31.12-.38.3-.98,2.7-1.35,5.42-.35,8.2.11.31.08.52-.14.78-1.57,1.75-2.52,3.81-2.95,6.11-.26,1.44-.24,2.89-.15,4.34.12,2,.52,3.94,1.21,5.82,1.24,3.42,3.63,5.7,6.9,7.16,1.91.85,3.91,1.3,5.97,1.57.24.03.47.07.71.11.09.02.22-.02.26.1.03.11-.07.18-.14.25-.74.76-1.21,1.67-1.51,2.67-.12.41-.2.83-.29,1.25-.04.17-.11.29-.29.36-1.72.71-3.5.98-5.32.6-1.32-.27-2.33-1.08-3.2-2.1-.49-.58-.84-1.26-1.28-1.87-1.11-1.52-2.56-2.55-4.43-2.91-.47-.09-.95-.08-1.42.07-.46.15-.55.38-.31.79.27.47.65.86,1.11,1.11,1.3.71,2.09,1.86,2.83,3.07.41.67.7,1.39,1,2.11.84,2.03,2.42,3.18,4.51,3.64,2.05.45,4.12.52,6.19.13.36-.07.47.04.47.4,0,1.83.03,3.66.05,5.48,0,.36-.03.71-.18,1.03-.4.84-1.35,1.12-2.38.77-5.55-1.92-10.3-5.02-14.17-9.45-2.26-2.58-4.15-5.41-5.57-8.55-1.13-2.5-1.93-5.11-2.39-7.82-.39-2.34-.62-4.7-.51-7.07.1-2.33.42-4.64.97-6.91,1.11-4.55,3.15-8.65,5.98-12.36,2.58-3.38,5.73-6.15,9.39-8.32,2.99-1.78,6.16-3.08,9.56-3.85,3.45-.78,6.93-1,10.44-.72,5.53.44,10.63,2.19,15.29,5.2,4.24,2.74,7.68,6.25,10.34,10.54,1.73,2.79,3.03,5.77,3.88,8.94.51,1.93.8,3.89,1,5.88.13,1.26.17,2.51.11,3.77-.09,2-.31,3.99-.71,5.96-.58,2.85-1.54,5.56-2.85,8.14-1.12,2.2-2.48,4.24-4.04,6.14-3.33,4.07-7.37,7.2-12.18,9.34-.97.43-1.96.79-2.96,1.15-1.07.38-2.01-.03-2.32-.98-.09-.28-.09-.57-.09-.86,0-1.59,0-3.18,0-5.06Z"/>
</svg>