<?xml version="1.0" encoding="UTF-8"?>
<svg id="Layer_1" data-name="Layer 1" xmlns="http://www.w3.org/2000/svg" viewBox="0 0 1931.23 1165.5">
  <defs>
    <style>
      .cls-1 {
        fill: #fff;
        stroke-width: 0px;
      }
    </style>
  </defs>
  <path class="cls-1" d="m.7,246.95c0-4.56-.06-9.12.01-13.67.1-6.81,2.95-12.2,8.62-16.02,3.08-2.07,6.54-3.05,10.25-3.06,9.26-.01,18.53,0,27.79,0,9.85,0,18.06,7.64,18.79,17.46.06.79.09,1.57.09,2.36,0,8.84,0,17.69,0,26.53,0,8.72-5.48,16.07-13.86,18.43-1.66.47-3.44.69-5.17.71-9.16.07-18.33.05-27.49.03-9.01-.02-16.56-6.04-18.55-14.84-.32-1.41-.44-2.88-.46-4.32-.06-4.53-.02-9.07-.02-13.6Zm32.77,26.85c4.85,0,9.71.08,14.56-.02,6.78-.14,12.15-5.69,12.16-12.46.02-9.46,0-18.92,0-28.38,0-1.59-.28-3.14-.88-4.61-1.97-4.85-6.51-7.91-11.76-7.92-9.36,0-18.73,0-28.09,0-.59,0-1.18.06-1.76.13-6.28.85-10.89,6.04-10.91,12.36-.03,9.46-.03,18.92,0,28.38.03,6.86,5.36,12.35,12.2,12.49,4.83.1,9.66.02,14.49.02Z"/>
  <path class="cls-1" d="m33.48,230.11c9.4,0,17.01,7.63,17,17.03,0,9.38-7.71,17.06-17.04,17-9.43-.07-16.99-7.68-16.96-17.08.02-9.35,7.65-16.96,17.01-16.95Zm10.99,17.02c0-6.07-4.92-11.03-10.98-11.04-6.05-.01-11,4.93-11.02,11-.02,6.06,4.91,11.01,10.98,11.02,6.07.01,11.01-4.91,11.02-10.99Z"/>
  <path class="cls-1" d="m51.07,233.43c-2.23.01-3.99-1.74-3.99-3.97,0-2.18,1.74-3.94,3.93-3.97,2.18-.02,4.03,1.81,4.02,3.98-.02,2.17-1.79,3.95-3.95,3.96Z"/>
</svg>