<?xml version="1.0" encoding="UTF-8"?>
<svg id="Layer_1" data-name="Layer 1" xmlns="http://www.w3.org/2000/svg" viewBox="0 0 1931.23 1165.5">
  <defs>
    <style>
      .cls-1 {
        fill: #fff;
        stroke-width: 0px;
      }
    </style>
  </defs>
  <path class="cls-1" d="m154.52,128.83c0-9.3.02-18.6-.02-27.91,0-2.25,1.48-4.23,3.64-4.79.4-.1.84-.15,1.26-.15,18.64,0,37.27,0,55.91,0,2.77,0,4.81,1.97,4.95,4.74,0,.16,0,.33,0,.49,0,18.41,0,36.82,0,55.22,0,2.05-.75,3.64-2.55,4.67-.89.51-1.87.63-2.88.63-10.07,0-20.13,0-30.2,0-8.26,0-16.52,0-24.78,0-1.15,0-2.25-.18-3.2-.85-1.4-.98-2.14-2.31-2.14-4.05,0-9.33,0-18.67,0-28Zm35.04-3.85s-.08-.02-.12-.03c-.02-.2-.06-.4-.06-.6,0-1.06-.01-2.12,0-3.18,0-.36-.12-.48-.48-.47-2.74.01-5.47.02-8.21,0-.4,0-.49.13-.49.5,0,10.07,0,20.14,0,30.2,0,.41.12.52.52.52,2.82-.02,5.64-.02,8.45,0,.48,0,.6-.15.6-.61-.02-2.82-.03-5.64,0-8.45.03-2.96.07-5.92.17-8.88.05-1.28.42-2.51,1.19-3.57,1.34-1.83,3.26-2.18,5.36-1.98,1.99.19,3.31,1.3,3.79,3.21.32,1.28.52,2.63.53,3.94.06,5.23.03,10.46.03,15.69q0,.65.67.65c2.79,0,5.57-.01,8.36.01.47,0,.6-.12.6-.59-.03-5.46-.04-10.91-.06-16.37,0-.81-.01-1.63-.05-2.44-.1-2.2-.36-4.38-1.15-6.46-.99-2.62-2.75-4.48-5.42-5.39-2.11-.72-4.3-.93-6.51-.64-3.14.42-5.69,1.85-7.43,4.58-.08.13-.18.24-.28.36Zm-25.2,11.28c0,5.03,0,10.06,0,15.09,0,.45.12.57.57.57,2.85-.02,5.7-.02,8.55,0,.41,0,.52-.11.52-.52-.01-10.06-.01-20.12,0-30.19,0-.4-.11-.52-.52-.52-2.83.02-5.67.02-8.5,0-.5,0-.63.12-.63.62.02,4.98.01,9.96.01,14.95Zm4.82-19.99c3.1,0,5.54-2.46,5.54-5.55,0-3.11-2.47-5.57-5.58-5.57-3.09,0-5.56,2.51-5.54,5.61.01,3.07,2.49,5.52,5.59,5.51Z"/>
</svg>