<?xml version="1.0" encoding="UTF-8"?>
<svg id="Layer_1" data-name="Layer 1" xmlns="http://www.w3.org/2000/svg" viewBox="0 0 5276.03 1655.35">
  <defs>
    <style>
      .cls-1 {
        fill: #5ace0f;
      }

      .cls-1, .cls-2 {
        stroke-width: 0px;
      }

      .cls-2 {
        fill: #ffec00;
      }
    </style>
  </defs>
  <polygon class="cls-2" points="597.3 0 0 951.59 245.06 951.59 98.8 1655.35 707.63 685.4 454.86 685.4 597.3 0"/>
  <g>
    <path class="cls-1" d="m1035.69,962.36h-157.72l-41.35,72.06h-147.08l263.45-413.49h137.04l98.05,413.49h-138.81l-13.59-72.06Zm-19.49-100.42l-20.08-105.74-60.84,105.74h80.92Z"/>
    <path class="cls-1" d="m1411.34,726.08l-14.18,70.88h172.48l-21.26,105.14h-171.89l-26.58,132.32h-139.4l82.7-413.49h336.1l-21.26,105.14h-196.7Z"/>
    <path class="cls-1" d="m1744.47,729.03h-121.09l21.86-108.1h381.59l-21.86,108.1h-121.09l-60.84,305.39h-139.41l60.85-305.39Z"/>
    <path class="cls-1" d="m2178.6,726.08l-9.45,48.44h174.85l-20.08,100.42h-175.44l-10.63,54.34h207.33l-21.26,105.14h-343.79l82.7-413.49h336.1l-21.26,105.14h-199.06Z"/>
    <path class="cls-1" d="m2706.06,913.92l69.11,120.5h-144.72l-58.48-103.96h-34.26l-20.68,103.96h-139.4l82.7-413.49h185.48c109.28,0,171.89,50.21,171.89,135.86,0,73.84-41.35,130.54-111.64,157.12Zm-81.52-185.48h-46.67l-19.49,96.88h57.29c38.4,0,60.85-20.08,60.85-54.93,0-29.54-20.09-41.94-51.98-41.94Z"/>
    <path class="cls-1" d="m2980.1,1001.93l53.75-102.78c46.08,26.58,93.33,38.4,139.4,38.4,36.04,0,54.94-9.45,54.94-24.22,0-43.71-196.7-18.31-196.7-146.49,0-93.92,78.56-155.35,209.1-155.35,61.43,0,116.37,12.4,154.76,35.44l-50.21,101.6c-33.08-20.68-73.24-30.72-113.41-30.72s-60.84,13.58-60.84,27.76c0,45.48,197.29,16.54,197.29,144.13,0,92.15-80.33,154.17-209.1,154.17-73.84,0-139.4-17.72-178.98-41.94Z"/>
    <path class="cls-1" d="m3527.66,729.03h-121.09l21.86-108.1h381.59l-21.86,108.1h-121.09l-60.84,305.39h-139.41l60.85-305.39Z"/>
    <path class="cls-1" d="m3780.45,858.98c0-145.9,108.69-247.5,260.5-247.5,128.77,0,209.7,76.2,209.7,184.89,0,145.9-108.69,247.5-260.5,247.5-128.77,0-209.7-76.2-209.7-184.88Zm329.61-54.35c0-47.85-30.13-80.34-80.93-80.34-68.52,0-108.09,58.48-108.09,126.41,0,47.85,30.12,80.34,80.92,80.34,68.52,0,108.1-58.48,108.1-126.41Z"/>
    <path class="cls-1" d="m4586.71,913.92l69.11,120.5h-144.72l-58.48-103.96h-34.26l-20.68,103.96h-139.4l82.7-413.49h185.48c109.28,0,171.89,50.21,171.89,135.86,0,73.84-41.35,130.54-111.64,157.12Zm-81.52-185.48h-46.67l-19.49,96.88h57.29c38.4,0,60.85-20.08,60.85-54.93,0-29.54-20.09-41.94-51.98-41.94Z"/>
    <path class="cls-1" d="m5276.03,620.93l-81.52,413.49h-127l36.62-188.43-116.37,151.22h-61.43l-63.79-148.86-37.21,186.07h-127l82.7-413.49h113.41l89.79,219.74,173.07-219.74h118.73Z"/>
  </g>
</svg>