<?xml version="1.0" encoding="UTF-8"?>
<svg id="Layer_1" data-name="Layer 1" xmlns="http://www.w3.org/2000/svg" viewBox="0 0 1931.23 1165.5">
  <defs>
    <style>
      .cls-1 {
        fill: #fff;
        stroke-width: 0px;
      }
    </style>
  </defs>
  <path class="cls-1" d="m58.15,93.52c1.91,0,3.81,0,5.72,0-.04.05-.07.1-.11.15-3.7,4.3-7.39,8.59-11.09,12.89-4.29,4.98-8.57,9.96-12.86,14.94-.09.1-.11.17-.02.3,2.44,3.54,4.88,7.09,7.32,10.64,2.65,3.86,5.3,7.72,7.95,11.58,3.37,4.91,6.75,9.82,10.12,14.73.27.39.55.78.82,1.17,0,.01-.01.03-.02.03-.04,0-.09,0-.14,0h-19.21c-.04-.07-.08-.14-.12-.2-.43-.62-.86-1.24-1.29-1.87-2.6-3.79-5.21-7.58-7.81-11.37-2.77-4.03-5.55-8.07-8.32-12.1-.06-.08-.11-.16-.18-.25-.05.06-.09.09-.12.13-2.87,3.33-5.74,6.67-8.61,10-4.33,5.03-8.65,10.05-12.98,15.08-.16.19-.31.38-.47.57-1.87,0-3.75,0-5.62,0-.05,0-.09-.02-.14-.03.04-.04.08-.07.12-.11,4.01-4.65,8.01-9.31,12.02-13.97,4.37-5.07,8.73-10.15,13.1-15.22.11-.12.12-.2.02-.34-.64-.91-1.26-1.83-1.89-2.75-2.5-3.64-5-7.28-7.51-10.92-2.45-3.57-4.9-7.13-7.35-10.7-2.62-3.81-5.23-7.61-7.85-11.42-.22-.31-.44-.62-.66-.93,0-.01.01-.03.02-.03.04,0,.09,0,.14,0,6.4,0,12.81,0,19.21,0,.03.05.06.11.1.16,2.13,3.11,4.27,6.21,6.4,9.32,3.18,4.62,6.35,9.24,9.53,13.86.25.36.49.71.75,1.08.11-.12.21-.23.3-.34,5.05-5.86,10.09-11.73,15.14-17.59,1.86-2.16,3.71-4.32,5.57-6.48Zm-49.33,4.32c.05.08.09.13.12.18.8,1.14,1.59,2.27,2.39,3.41,4.53,6.47,9.05,12.94,13.58,19.42,4.11,5.88,8.22,11.75,12.33,17.63,4.01,5.73,8.02,11.46,12.02,17.2.07.1.14.14.26.14,2.82,0,5.63,0,8.45,0,.05,0,.11,0,.18-.01-.04-.06-.06-.11-.09-.15-3.68-5.26-7.35-10.51-11.03-15.77-4.42-6.32-8.85-12.65-13.27-18.97-5.35-7.65-10.69-15.29-16.04-22.94-.07-.11-.15-.14-.28-.14-2.81,0-5.62,0-8.43,0-.05,0-.11,0-.19,0Z"/>
</svg>